<svg width="118" height="118" viewBox="0 0 118 118" fill="none" xmlns="http://www.w3.org/2000/svg">
<path d="M61.6875 41.125C60.6104 41.125 59.7781 40.6354 59.1906 39.6562C58.6031 38.6771 58.6031 37.6979 59.1906 36.7188L76.375 6.90312C77.1583 5.63021 78.1375 4.87233 79.3125 4.6295C80.4875 4.38667 81.7604 4.606 83.1312 5.2875C89.8875 8.32292 95.8604 12.5568 101.05 17.9892C106.24 23.4217 110.254 29.5669 113.094 36.425C113.583 37.6979 113.509 38.8005 112.87 39.7326C112.232 40.6648 111.229 41.1289 109.863 41.125H61.6875ZM40.6844 48.3219L23.0594 17.7719C22.276 16.499 22.0802 15.226 22.4719 13.9531C22.8635 12.6802 23.6469 11.6521 24.8219 10.8687C29.5219 7.53958 34.7369 4.89583 40.467 2.9375C46.1971 0.979167 52.2914 0 58.75 0C60.2188 0 61.8344 0.0744173 63.5969 0.223251C65.3594 0.372084 66.8281 0.542458 68.0031 0.734375C69.374 0.930208 70.2807 1.51771 70.7233 2.49687C71.1658 3.47604 71.0425 4.55312 70.3531 5.72812L45.825 48.3219C45.2375 49.301 44.3817 49.7906 43.2576 49.7906C42.1335 49.7906 41.2758 49.301 40.6844 48.3219ZM4.99375 70.5C3.91667 70.5 2.9375 70.1338 2.05625 69.4014C1.175 68.669 0.636459 67.7623 0.440625 66.6813C0.244792 65.6003 0.123375 64.4253 0.0763751 63.1562C0.0293751 61.8872 0.00391667 60.4185 0 58.75C0 52.5813 1.00463 46.438 3.01388 40.3201C5.02313 34.2023 8.131 28.3998 12.3375 22.9125C13.4146 21.5417 14.664 20.8563 16.0857 20.8563C17.5075 20.8563 18.6081 21.5906 19.3875 23.0594L44.0625 66.0938C44.65 67.0729 44.6265 68.0521 43.992 69.0312C43.3575 70.0104 42.4998 70.5 41.4188 70.5H4.99375ZM34.3687 112.213C27.9062 109.079 21.9823 104.82 16.5969 99.4344C11.2115 94.049 7.14792 87.9292 4.40625 81.075C3.91667 79.8021 4.01458 78.7015 4.7 77.7732C5.38542 76.845 6.41354 76.3789 7.78438 76.375H55.6656C56.7427 76.375 57.575 76.8646 58.1625 77.8438C58.75 78.8229 58.75 79.8021 58.1625 80.7812L41.2719 110.303C40.4885 111.576 39.5094 112.408 38.3344 112.8C37.1594 113.192 35.8375 112.996 34.3687 112.213ZM58.75 117.5C57.3792 117.5 55.836 117.426 54.1205 117.277C52.405 117.128 50.9127 116.958 49.6437 116.766C48.2729 116.57 47.3427 115.982 46.8531 115.003C46.3635 114.024 46.4615 112.947 47.1469 111.772L71.3812 69.4719C71.9687 68.4927 72.9479 68.0031 74.3187 68.0031C75.6896 68.0031 76.6687 68.4927 77.2562 69.4719L94.5875 99.5813C95.2729 100.658 95.4942 101.833 95.2514 103.106C95.0085 104.379 94.1997 105.554 92.825 106.631C88.3208 109.96 83.0588 112.604 77.0389 114.562C71.019 116.521 64.9227 117.5 58.75 117.5ZM98.5531 94.7344L73.5844 51.4062C72.9969 50.4271 73.0223 49.4479 73.6608 48.4688C74.2992 47.4896 75.155 47 76.2281 47H112.506C113.583 47 114.562 47.3682 115.444 48.1045C116.325 48.8408 116.864 49.7456 117.059 50.8187C117.255 51.8919 117.377 53.0669 117.424 54.3438C117.471 55.6206 117.496 57.0893 117.5 58.75C117.5 64.9187 116.495 71.113 114.486 77.3326C112.477 83.5523 109.369 89.3529 105.162 94.7344C104.379 95.8115 103.253 96.3755 101.784 96.4264C100.316 96.4773 99.2385 95.9133 98.5531 94.7344Z" fill="white"/>
</svg>
