<svg width="113" height="113" viewBox="0 0 113 113" fill="none" xmlns="http://www.w3.org/2000/svg">
<path d="M39.375 28.125H50.625L56.25 45L61.875 28.125H73.125L61.875 61.875V84.375H50.625V61.875L39.375 28.125ZM56.25 0C63.6369 0 70.9514 1.45495 77.776 4.28178C84.6005 7.1086 90.8015 11.252 96.0248 16.4752C101.248 21.6985 105.391 27.8995 108.218 34.7241C111.045 41.5486 112.5 48.8632 112.5 56.25C112.5 71.1684 106.574 85.4759 96.0248 96.0248C85.4759 106.574 71.1684 112.5 56.25 112.5C48.8632 112.5 41.5486 111.045 34.7241 108.218C27.8995 105.391 21.6985 101.248 16.4752 96.0248C5.92632 85.4759 0 71.1684 0 56.25C0 41.3316 5.92632 27.0242 16.4752 16.4752C27.0242 5.92632 41.3316 0 56.25 0ZM56.25 11.25C44.3153 11.25 32.8693 15.9911 24.4302 24.4302C15.9911 32.8693 11.25 44.3153 11.25 56.25C11.25 68.1848 15.9911 79.6307 24.4302 88.0698C32.8693 96.509 44.3153 101.25 56.25 101.25C68.1848 101.25 79.6307 96.509 88.0698 88.0698C96.509 79.6307 101.25 68.1848 101.25 56.25C101.25 44.3153 96.509 32.8693 88.0698 24.4302C79.6307 15.9911 68.1848 11.25 56.25 11.25Z" fill="#660000"/>
</svg>
