<?xml version="1.0" encoding="UTF-8"?>
<svg id="_レイヤー_5" data-name="レイヤー 5" xmlns="http://www.w3.org/2000/svg" viewBox="0 0 200 200">
  <defs>
    <style>
      .cls-1 {
        fill: #600;
      }
    </style>
  </defs>
  <path class="cls-1" d="M78.95,83.36c0,33.15,13.97,96.2,22.81,96.2,8.85,0,22.81-63.05,22.81-96.2,0-33.15-10.24-58.83-22.81-58.83-12.57,0-22.81,25.69-22.81,58.83Z"/>
  <path class="cls-1" d="M142,112.01c-11.47,19.86-23.57,63.25-17.42,66.8,6.15,3.55,37.68-28.63,49.14-48.49,11.47-19.86,13.23-39.37,4.49-44.41-8.74-5.05-24.75,6.24-36.22,26.1Z"/>
  <path class="cls-1" d="M61.52,112.01c11.47,19.86,23.57,63.25,17.42,66.8-6.15,3.55-37.68-28.63-49.14-48.49-11.47-19.86-13.23-39.37-4.49-44.41,8.74-5.05,24.75,6.24,36.22,26.1Z"/>
</svg>