<svg width="56" height="30" viewBox="0 0 56 30" fill="none" xmlns="http://www.w3.org/2000/svg">
<path d="M6.50935 25.2858C6.39252 25.2619 6.23405 25.263 6.03397 25.289C5.84676 25.3115 5.68186 25.3143 5.53926 25.2973C5.24717 25.2375 5.00694 25.088 4.81856 24.8486C4.64306 24.6057 4.50699 24.304 4.41037 23.9434C4.27578 23.4411 4.20122 22.8537 4.18667 22.1812C4.185 21.5053 4.22024 20.8126 4.2924 20.103C4.37743 19.3901 4.47282 18.7157 4.57856 18.08C4.69373 17.428 4.80258 16.8812 4.90512 16.4396C5.0042 15.9852 5.07513 15.6832 5.11789 15.5337C5.26252 15.0946 5.47684 14.7611 5.76085 14.5332C6.0543 14.2889 6.40064 14.1133 6.79989 14.0063C7.66279 13.7751 8.05054 13.754 7.96316 13.9431C7.77553 14.3246 7.61032 14.7899 7.46755 15.3389C7.32132 15.875 7.19142 16.4206 7.07786 16.9755C6.97717 17.5271 6.88844 18.0202 6.81166 18.4548C6.76637 18.6464 6.72924 18.8427 6.70028 19.0437C6.67132 19.2447 6.64236 19.4458 6.6134 19.6468C6.66239 19.6751 6.78692 19.6762 6.98701 19.6502C7.19653 19.6079 7.3528 19.5729 7.45583 19.5453C7.75205 19.4659 8.03733 19.2169 8.31167 18.7983C8.59889 18.3763 8.83619 17.871 9.02358 17.2824C9.2204 16.6775 9.34592 16.0641 9.40014 15.4422C9.46724 14.8169 9.43523 14.2595 9.30409 13.7701C9.17296 13.2807 8.93075 12.9177 8.57747 12.6811C8.22074 12.4316 7.72039 12.3931 7.07644 12.5656C6.65144 12.6795 6.18101 12.8815 5.66518 13.1715C5.16222 13.4582 4.68468 13.8139 4.23256 14.2387C3.78044 14.6635 3.41986 15.1466 3.15082 15.6881C2.87833 16.2166 2.7635 16.7926 2.80633 17.4161C2.75137 17.417 2.61395 17.4193 2.39408 17.423C2.17076 17.4139 1.94526 17.3708 1.71756 17.2937C1.4993 17.2004 1.36083 17.0442 1.30216 16.8253C1.12617 16.1684 1.26583 15.5306 1.72115 14.9116C2.17647 14.2927 2.87363 13.7263 3.81263 13.2124C4.74817 12.6857 5.84702 12.2532 7.10916 11.915C8.40994 11.5665 9.43672 11.5605 10.1895 11.8971C10.9388 12.2209 11.4153 12.7627 11.6189 13.5226C11.7845 14.1408 11.7703 14.8348 11.5763 15.6045C11.3951 16.3709 11.0615 17.109 10.5754 17.8191C10.1021 18.5256 9.50544 19.1065 8.78539 19.5617C8.63177 19.6581 8.40087 19.7752 8.0927 19.913C7.79741 20.0473 7.51453 20.1507 7.24407 20.2232C7.08952 20.2646 6.9444 20.2897 6.80871 20.2984C6.6859 20.3037 6.59183 20.2875 6.52651 20.2498C6.40309 21.1801 6.32382 22.0434 6.2887 22.8396C6.25358 23.6358 6.28951 24.2336 6.39649 24.6328C6.4517 24.8389 6.53175 24.9831 6.63663 25.0654C6.66929 25.0842 6.69252 25.1194 6.70633 25.171C6.73048 25.2611 6.66482 25.2994 6.50935 25.2858ZM16.061 22.3745C15.2367 22.5954 14.5565 22.6327 14.0204 22.4864C13.4843 22.3402 13.1127 21.8807 12.9057 21.108C12.7607 20.5671 12.6926 19.978 12.7013 19.3407C12.7194 18.687 12.8135 18.0338 12.9837 17.3808C13.1538 16.7279 13.3957 16.1109 13.7094 15.5299C14.023 14.9489 14.4076 14.4525 14.8632 14.0405C15.3153 13.6157 15.8376 13.3239 16.43 13.1652C16.8164 13.0617 17.1921 12.9955 17.5571 12.9667C17.922 12.9379 18.2451 13.0101 18.5261 13.1833C18.8037 13.3436 19.0064 13.662 19.1341 14.1385C19.2687 14.6408 19.3077 15.3274 19.2512 16.1984C19.1947 17.0693 19.0364 17.9469 18.7764 18.831C18.7782 18.9409 18.793 19.0474 18.8206 19.1504C18.8585 19.2921 18.9222 19.4268 19.0117 19.5547C19.1141 19.6791 19.2425 19.7206 19.3971 19.6792C19.6031 19.624 19.7777 19.4254 19.9207 19.0834C20.0663 18.6993 20.201 18.2491 20.3249 17.7328C20.4488 17.2164 20.5372 16.7993 20.5901 16.4815C20.5951 16.3973 20.6427 16.3431 20.7329 16.319C20.8231 16.2948 20.9107 16.3128 20.9958 16.3728C21.0938 16.4293 21.1244 16.5178 21.0876 16.6381C21.0363 16.8589 20.9735 17.1655 20.8993 17.5581C20.8216 17.9379 20.7198 18.3309 20.5941 18.7373C20.4683 19.1437 20.3042 19.4845 20.1019 19.7595C19.9501 19.9658 19.7647 20.0983 19.5458 20.157C19.2882 20.226 19.0795 20.2198 18.9197 20.1384C18.7564 20.0441 18.605 19.8914 18.4656 19.6803C18.2019 20.3446 17.8672 20.9243 17.4615 21.4195C17.0559 21.9147 16.589 22.233 16.061 22.3745ZM15.5335 21.874C15.6751 21.836 15.8183 21.5975 15.9629 21.1584C16.1075 20.7194 16.2439 20.1721 16.3719 19.5166C16.4965 18.8483 16.6129 18.1752 16.7212 17.4974C16.7451 17.3806 16.7788 17.1714 16.8222 16.8699C16.8622 16.5555 16.9018 16.2136 16.9408 15.8443C16.9764 15.462 16.9962 15.0978 17.0001 14.7517C17.0039 14.4056 16.98 14.1359 16.9282 13.9427C16.8696 13.7238 16.7758 13.6316 16.6471 13.6661C16.5311 13.6971 16.4141 13.8527 16.2959 14.1329C16.1743 14.4001 16.0523 14.7434 15.93 15.1627C15.8077 15.5819 15.6987 16.0253 15.603 16.4926C15.5074 16.9599 15.4306 17.3946 15.3727 17.7967C15.3148 18.1987 15.2625 18.6475 15.2159 19.1431C15.1692 19.6388 15.1431 20.1082 15.1377 20.5514C15.1416 20.9782 15.1764 21.314 15.2419 21.5587C15.3075 21.8034 15.4047 21.9085 15.5335 21.874ZM23.5477 20.3891C23.0841 20.5134 22.631 20.4967 22.1885 20.3392C21.7425 20.1689 21.4384 19.781 21.2763 19.1757C21.1693 18.7764 21.1094 18.2955 21.0967 17.733C21.0969 17.167 21.1258 16.5795 21.1835 15.9705C21.2377 15.3486 21.3105 14.77 21.4017 14.2349C21.5024 13.6833 21.6015 13.2289 21.699 12.8715C21.8616 12.3448 22.1029 11.9833 22.423 11.7871C22.756 11.5875 23.1801 11.4186 23.6953 11.2806C24.0688 11.1805 24.3899 11.1428 24.6588 11.1673C24.9242 11.1791 24.987 11.2589 24.8472 11.4067C24.6473 11.6397 24.4319 12.0978 24.2008 12.7809C23.9697 13.4639 23.7705 14.2144 23.6031 15.0323C23.5553 15.2659 23.5007 15.5773 23.4394 15.9665C23.3745 16.3428 23.3166 16.7448 23.2656 17.1726C23.224 17.584 23.1983 17.9774 23.1884 18.3527C23.1751 18.7152 23.1978 19.0059 23.2565 19.2249C23.3427 19.5468 23.534 19.6681 23.8302 19.5888C24.1393 19.5059 24.4473 19.2647 24.7543 18.8649C24.8967 18.6749 25.021 18.4691 25.1272 18.2474C25.2334 18.0256 25.3268 17.8074 25.4073 17.5926C25.5717 17.1758 25.7034 16.7402 25.8025 16.2857C25.911 15.8149 26.0071 15.3751 26.0908 14.9662C26.1087 14.8785 26.1499 14.8261 26.2143 14.8088C26.3044 14.7847 26.3938 14.8091 26.4823 14.882C26.5709 14.9548 26.6032 15.0497 26.5793 15.1666C26.4897 15.6047 26.3739 16.1257 26.232 16.7297C26.0867 17.3208 25.886 17.8853 25.6299 18.4233C25.408 18.883 25.1255 19.2969 24.7823 19.6649C24.4487 20.0166 24.0371 20.258 23.5477 20.3891ZM23.7842 10.2215C23.5652 10.2801 23.3724 10.2559 23.2056 10.1487C23.0354 10.0287 22.9176 9.84633 22.852 9.60163C22.7726 9.30541 22.7774 9.01425 22.8664 8.72814C22.9554 8.44203 23.0951 8.19064 23.2855 7.97397C23.4759 7.75731 23.6935 7.61619 23.9382 7.55062C24.1571 7.49196 24.3517 7.52264 24.5219 7.64268C24.6886 7.74984 24.8013 7.91289 24.86 8.13184C24.9359 8.41518 24.9311 8.70634 24.8456 9.00533C24.7601 9.30432 24.6238 9.56859 24.4369 9.79813C24.2464 10.0148 24.0289 10.1559 23.7842 10.2215ZM32.3358 18.0344C31.679 18.2104 31.1864 18.1491 30.8579 17.8506C30.5295 17.5521 30.3014 17.1646 30.1737 16.6881C30.0805 16.3404 30.026 15.9823 30.0101 15.6138C29.9942 15.2454 29.9951 14.9139 30.0128 14.6193C30.0305 14.3246 30.0448 14.1206 30.0558 14.0073C30.0862 13.5022 30.1281 13.0147 30.1816 12.5449C30.2446 12.0587 30.2987 11.7198 30.344 11.5282C30.3227 11.6029 30.231 11.8276 30.0691 12.2023C29.9073 12.577 29.721 13.041 29.5104 13.5944C29.3092 14.1314 29.1166 14.7006 28.9327 15.3021C28.7453 15.8906 28.606 16.4525 28.5147 16.9877C28.4329 17.5065 28.4368 17.9334 28.5266 18.2683C28.5887 18.5001 28.6851 18.6537 28.8157 18.7291C28.8647 18.7574 28.8926 18.7844 28.8995 18.8102C28.9168 18.8746 28.8511 18.9129 28.7026 18.9251C28.3925 18.9529 28.089 18.9791 27.7918 19.0035C27.4912 19.015 27.2202 18.9565 26.9787 18.8279C26.7466 18.6831 26.5719 18.3917 26.4546 17.9538C26.3614 17.6061 26.3394 17.1634 26.3886 16.6256C26.4343 16.075 26.5088 15.5029 26.612 14.9093C26.7152 14.3157 26.7966 13.7694 26.8561 13.2703C26.8671 13.1569 26.8901 12.9851 26.925 12.7549C26.9565 12.5118 26.9863 12.2623 27.0143 12.0063C27.0518 11.734 27.0721 11.5008 27.0753 11.3067C27.0751 11.0997 27.0534 10.9674 27.0104 10.9099C26.9709 10.8653 26.9476 10.8301 26.9407 10.8044C26.8993 10.6498 26.9816 10.5449 27.1877 10.4897C27.3938 10.4345 27.6085 10.4115 27.8318 10.4207C28.0645 10.4135 28.2819 10.4519 28.4838 10.5358C28.6986 10.6163 28.8817 10.7329 29.0331 10.8856C29.1844 11.0383 29.2894 11.2241 29.3481 11.4431C29.386 11.5847 29.3987 11.7608 29.3861 11.9712C29.3845 12.0683 29.3593 12.2062 29.3105 12.3849C29.2712 12.5472 29.2289 12.7242 29.1836 12.9158C29.1383 13.1074 29.0883 13.3071 29.0336 13.5151C28.9918 13.7195 28.9855 13.8247 29.0147 13.8307C29.1848 13.1778 29.3911 12.5566 29.6334 11.9671C29.8852 11.3613 30.1173 10.8366 30.3298 10.3932C30.5551 9.94632 30.6969 9.62536 30.7551 9.43033C30.8374 9.32545 30.9945 9.24195 31.2263 9.17983C31.4968 9.10736 31.7961 9.11688 32.1243 9.20839C32.4525 9.29989 32.6753 9.56459 32.7926 10.0025C32.8892 10.3631 32.8778 10.8355 32.7582 11.4197C32.4874 12.6241 32.3177 13.6911 32.2493 14.6204C32.1774 15.537 32.1949 16.1948 32.3019 16.5941C32.3778 16.8774 32.4931 16.9984 32.6476 16.957C32.8279 16.9087 33.0029 16.7375 33.1726 16.4436C33.3423 16.1497 33.4871 15.8141 33.6069 15.4369C33.7798 14.9489 33.92 14.4419 34.0276 13.9162C34.1481 13.387 34.2292 13.0201 34.2711 12.8157C34.289 12.728 34.3366 12.6739 34.4139 12.6532C34.4912 12.6325 34.5741 12.6586 34.6626 12.7315C34.7606 12.788 34.7976 12.8747 34.7737 12.9916C34.7319 13.196 34.6639 13.4834 34.5699 13.8537C34.4888 14.2205 34.3887 14.62 34.2699 15.0522C34.1476 15.4715 34.0025 15.883 33.8346 16.2869C33.6548 16.7492 33.4543 17.1342 33.2331 17.442C33.0084 17.7368 32.7093 17.9343 32.3358 18.0344ZM37.2148 16.7271C36.7512 16.8513 36.2981 16.8347 35.8556 16.6771C35.4096 16.5068 35.1073 16.1254 34.9485 15.5329C34.8243 15.0693 34.7626 14.4784 34.7635 13.7604C34.7643 13.0424 34.8197 12.296 34.9296 11.5211C35.036 10.7334 35.1871 10.0096 35.383 9.34978L34.5523 9.57237C34.475 9.59307 34.4278 9.57123 34.4105 9.50683C34.3967 9.45532 34.4134 9.38873 34.4605 9.30708C34.5042 9.21256 34.5677 9.14033 34.6509 9.09042C34.8398 8.97081 35.0727 8.78416 35.3498 8.53045C35.6364 8.26042 35.9289 7.96119 36.2274 7.63274C36.5259 7.30429 36.8051 6.98102 37.0649 6.66292C37.3248 6.34483 37.5289 6.07618 37.6772 5.85699C37.7655 5.7229 37.8689 5.61928 37.9873 5.54614C38.1186 5.46954 38.2487 5.41399 38.3775 5.37948C38.5964 5.32081 38.7742 5.31459 38.9108 5.3608C39.0474 5.40702 39.0681 5.48429 38.9729 5.59263C38.8871 5.68463 38.7886 5.88358 38.6773 6.18947C38.566 6.49536 38.4552 6.82874 38.3448 7.1896C38.2474 7.54701 38.1606 7.86704 38.0845 8.14971L39.5527 7.7563C39.5784 7.7494 39.5965 7.76527 39.6068 7.8039C39.6241 7.8683 39.6208 7.95891 39.5969 8.07575C39.5695 8.17971 39.5301 8.23859 39.4785 8.25239L37.9524 8.66132C37.8156 9.18111 37.6703 9.77219 37.5165 10.4346C37.3627 11.0969 37.2252 11.7687 37.1041 12.45C36.9923 13.1149 36.9153 13.7291 36.8731 14.2925C36.8274 14.8431 36.8442 15.2665 36.9235 15.5628C37.0098 15.8847 37.2011 16.006 37.4973 15.9267C37.8064 15.8439 38.1144 15.6026 38.4214 15.2028C38.6709 14.8461 38.8839 14.4301 39.0602 13.955C39.2306 13.509 39.3653 13.0588 39.4644 12.6043C39.5764 12.1464 39.6652 11.7568 39.731 11.4355C39.7584 11.3316 39.8171 11.2675 39.9073 11.2433C39.9974 11.2192 40.0786 11.2388 40.1508 11.3023C40.2325 11.3495 40.2613 11.4314 40.2374 11.5483C40.1478 11.9864 40.0239 12.5027 39.8657 13.0973C39.7075 13.6918 39.5179 14.2464 39.297 14.7612C39.1162 15.1685 38.9212 15.4968 38.7119 15.7461C38.5121 15.9791 38.2826 16.1787 38.0234 16.3447C37.7806 16.5202 37.511 16.6477 37.2148 16.7271ZM43.1527 15.0946C42.9467 15.1498 42.762 15.1303 42.5987 15.036C42.432 14.9288 42.3192 14.7658 42.2606 14.5468C42.1916 14.2892 42.1968 14.0256 42.2764 13.7558C42.3559 13.486 42.4798 13.2527 42.6479 13.0558C42.8254 12.8426 43.0236 12.7066 43.2426 12.648C43.4486 12.5927 43.6286 12.6204 43.7825 12.7311C43.9492 12.8382 44.0619 13.0013 44.1206 13.2202C44.1896 13.4778 44.1844 13.7415 44.1048 14.0113C44.0253 14.281 43.9014 14.5144 43.7333 14.7113C43.5652 14.9081 43.3717 15.0359 43.1527 15.0946ZM52.2458 12.6995C52.1771 12.6489 51.946 12.6625 51.5528 12.7403C51.1758 12.8275 50.704 12.947 50.1373 13.0988L46.3316 14.1186C46.1642 14.1634 46.0494 14.07 45.9873 13.8381C45.9286 13.6192 45.9321 13.3491 45.9979 13.0278C46.0602 12.6936 46.1737 12.4216 46.3383 12.2119C46.7628 11.684 47.2182 11.0651 47.7043 10.3551C48.187 9.63217 48.6271 8.87926 49.0247 8.09635C49.4317 7.29711 49.7275 6.52076 49.9121 5.76731C50.1096 5.0104 50.129 4.33573 49.9702 3.74329C49.9047 3.49859 49.8066 3.33853 49.6759 3.2631C49.5453 3.18768 49.4027 3.17067 49.2482 3.21208C48.9906 3.2811 48.7301 3.46822 48.4668 3.77344C48.2001 4.06577 48.0175 4.36316 47.9191 4.66561C47.8053 5.01359 47.7227 5.29797 47.6714 5.51877C47.6296 5.72323 47.5692 5.88434 47.4904 6.0021C47.4244 6.11641 47.2948 6.19945 47.1016 6.25121C46.9728 6.28572 46.8495 6.26354 46.7318 6.18466C46.614 6.10579 46.5327 5.98263 46.4878 5.81521C46.4464 5.66066 46.4449 5.47471 46.4833 5.25737C46.5217 5.04003 46.6163 4.80072 46.7672 4.53944C47.122 3.90602 47.5443 3.34424 48.0341 2.8541C48.5334 2.34762 49.1372 1.99948 49.8455 1.80968C50.6054 1.60608 51.1847 1.63029 51.5836 1.88233C51.9824 2.13436 52.2474 2.50508 52.3785 2.99448C52.5407 3.59979 52.5243 4.25986 52.3293 4.97468C52.1438 5.67316 51.8436 6.38167 51.4288 7.10018C51.0268 7.81525 50.5712 8.5102 50.0618 9.18502C49.5653 9.8564 49.079 10.4629 48.603 11.0046C48.127 11.5462 47.7333 11.983 47.4219 12.3149C47.6648 12.1394 47.9497 11.9664 48.2767 11.796C48.6166 11.6221 48.9553 11.4692 49.2927 11.3374C49.6429 11.2022 49.9404 11.1018 50.1851 11.0362C50.726 10.8912 51.1962 10.8688 51.5957 10.9688C52.0081 11.0654 52.2747 11.339 52.3955 11.7898C52.4507 11.9958 52.4742 12.238 52.4659 12.5163C52.4737 12.597 52.4472 12.6525 52.3862 12.6826C52.3287 12.7256 52.2819 12.7312 52.2458 12.6995Z" fill="#FFFFCC"/>
<path d="M3.82529 28.0963L54.0685 14.6337L54.3273 15.5996L4.08411 29.0622L3.82529 28.0963Z" fill="#FFFFCC"/>
</svg>
