<svg width="56" height="30" viewBox="0 0 56 30" fill="none" xmlns="http://www.w3.org/2000/svg">
<path d="M6.50935 25.3376C6.39252 25.3137 6.23405 25.3147 6.03397 25.3407C5.84676 25.3633 5.68186 25.3661 5.53926 25.3491C5.24717 25.2893 5.00694 25.1397 4.81856 24.9003C4.64306 24.6575 4.50699 24.3557 4.41037 23.9951C4.27578 23.4928 4.20122 22.9055 4.18667 22.233C4.185 21.557 4.22024 20.8643 4.2924 20.1548C4.37743 19.4418 4.47282 18.7675 4.57856 18.1318C4.69373 17.4798 4.80258 16.933 4.90512 16.4914C5.0042 16.0369 5.07513 15.7349 5.11789 15.5854C5.26252 15.1464 5.47684 14.8129 5.76085 14.5849C6.0543 14.3407 6.40064 14.165 6.79989 14.0581C7.66279 13.8269 8.05054 13.8058 7.96316 13.9948C7.77553 14.3764 7.61032 14.8417 7.46755 15.3907C7.32132 15.9268 7.19142 16.4723 7.07786 17.0273C6.97717 17.5788 6.88844 18.0719 6.81166 18.5066C6.76637 18.6982 6.72924 18.8945 6.70028 19.0955C6.67132 19.2965 6.64236 19.4975 6.6134 19.6985C6.66239 19.7268 6.78692 19.728 6.98701 19.7019C7.19653 19.6596 7.3528 19.6246 7.45583 19.597C7.75205 19.5177 8.03733 19.2687 8.31167 18.8501C8.59889 18.428 8.83619 17.9227 9.02358 17.3342C9.2204 16.7293 9.34592 16.1159 9.40014 15.494C9.46724 14.8687 9.43523 14.3113 9.30409 13.8219C9.17296 13.3325 8.93075 12.9695 8.57747 12.7328C8.22074 12.4833 7.72039 12.4449 7.07644 12.6174C6.65144 12.7313 6.18101 12.9332 5.66518 13.2233C5.16222 13.5099 4.68468 13.8656 4.23256 14.2905C3.78044 14.7153 3.41986 15.1984 3.15082 15.7398C2.87833 16.2684 2.7635 16.8444 2.80633 17.4679C2.75137 17.4688 2.61395 17.4711 2.39408 17.4748C2.17076 17.4656 1.94526 17.4225 1.71756 17.3455C1.4993 17.2521 1.36083 17.096 1.30216 16.877C1.12617 16.2202 1.26583 15.5823 1.72115 14.9634C2.17647 14.3445 2.87363 13.778 3.81263 13.2642C4.74817 12.7374 5.84702 12.305 7.10916 11.9668C8.40994 11.6182 9.43672 11.6123 10.1895 11.9489C10.9388 12.2727 11.4153 12.8145 11.6189 13.5743C11.7845 14.1925 11.7703 14.8865 11.5763 15.6563C11.3951 16.4226 11.0615 17.1608 10.5754 17.8708C10.1021 18.5774 9.50544 19.1583 8.78539 19.6135C8.63177 19.7099 8.40087 19.8269 8.0927 19.9647C7.79741 20.0991 7.51453 20.2025 7.24407 20.2749C7.08952 20.3163 6.9444 20.3414 6.80871 20.3502C6.6859 20.3555 6.59183 20.3393 6.52651 20.3016C6.40309 21.2319 6.32382 22.0951 6.2887 22.8914C6.25358 23.6876 6.28951 24.2853 6.39649 24.6846C6.4517 24.8906 6.53175 25.0348 6.63663 25.1171C6.66929 25.136 6.69252 25.1712 6.70633 25.2227C6.73048 25.3129 6.66482 25.3512 6.50935 25.3376ZM16.061 22.4263C15.2367 22.6471 14.5565 22.6844 14.0204 22.5382C13.4843 22.392 13.1127 21.9325 12.9057 21.1598C12.7607 20.6188 12.6926 20.0297 12.7013 19.3924C12.7194 18.7388 12.8135 18.0855 12.9837 17.4326C13.1538 16.7796 13.3957 16.1627 13.7094 15.5817C14.023 15.0007 14.4076 14.5042 14.8632 14.0923C15.3153 13.6675 15.8376 13.3757 16.43 13.2169C16.8164 13.1134 17.1921 13.0473 17.5571 13.0185C17.922 12.9897 18.2451 13.0619 18.5261 13.235C18.8037 13.3953 19.0064 13.7137 19.1341 14.1902C19.2687 14.6925 19.3077 15.3792 19.2512 16.2501C19.1947 17.1211 19.0364 17.9986 18.7764 18.8827C18.7782 18.9927 18.793 19.0991 18.8206 19.2022C18.8585 19.3438 18.9222 19.4786 19.0117 19.6065C19.1141 19.7309 19.2425 19.7724 19.3971 19.731C19.6031 19.6758 19.7777 19.4772 19.9207 19.1351C20.0663 18.7511 20.201 18.3008 20.3249 17.7845C20.4488 17.2682 20.5372 16.8511 20.5901 16.5332C20.5951 16.4491 20.6427 16.3949 20.7329 16.3707C20.8231 16.3466 20.9107 16.3645 20.9958 16.4245C21.0938 16.4811 21.1244 16.5695 21.0876 16.6898C21.0363 16.9106 20.9735 17.2173 20.8993 17.6099C20.8216 17.9896 20.7198 18.3827 20.5941 18.7891C20.4683 19.1955 20.3042 19.5362 20.1019 19.8113C19.9501 20.0176 19.7647 20.1501 19.5458 20.2088C19.2882 20.2778 19.0795 20.2716 18.9197 20.1902C18.7564 20.0959 18.605 19.9432 18.4656 19.7321C18.2019 20.3963 17.8672 20.976 17.4615 21.4712C17.0559 21.9664 16.589 22.2848 16.061 22.4263ZM15.5335 21.9257C15.6751 21.8878 15.8183 21.6493 15.9629 21.2102C16.1075 20.7711 16.2439 20.2239 16.3719 19.5684C16.4965 18.9 16.6129 18.227 16.7212 17.5492C16.7451 17.4324 16.7788 17.2232 16.8222 16.9217C16.8622 16.6073 16.9018 16.2654 16.9408 15.896C16.9764 15.5138 16.9962 15.1496 17.0001 14.8035C17.0039 14.4573 16.98 14.1877 16.9282 13.9945C16.8696 13.7755 16.7758 13.6833 16.6471 13.7178C16.5311 13.7489 16.4141 13.9045 16.2959 14.1846C16.1743 14.4519 16.0523 14.7952 15.93 15.2144C15.8077 15.6337 15.6987 16.077 15.603 16.5444C15.5074 17.0117 15.4306 17.4464 15.3727 17.8484C15.3148 18.2504 15.2625 18.6993 15.2159 19.1949C15.1692 19.6905 15.1431 20.1599 15.1377 20.6031C15.1416 21.03 15.1764 21.3657 15.2419 21.6104C15.3075 21.8551 15.4047 21.9602 15.5335 21.9257ZM23.5477 20.4409C23.0841 20.5651 22.631 20.5485 22.1885 20.391C21.7425 20.2206 21.4384 19.8328 21.2763 19.2274C21.1693 18.8282 21.1094 18.3473 21.0967 17.7848C21.0969 17.2188 21.1258 16.6312 21.1835 16.0222C21.2377 15.4003 21.3105 14.8218 21.4017 14.2866C21.5024 13.7351 21.6015 13.2806 21.699 12.9232C21.8616 12.3965 22.1029 12.0351 22.423 11.8389C22.756 11.6392 23.1801 11.4704 23.6953 11.3323C24.0688 11.2323 24.3899 11.1945 24.6588 11.2191C24.9242 11.2308 24.987 11.3106 24.8472 11.4585C24.6473 11.6915 24.4319 12.1495 24.2008 12.8326C23.9697 13.5157 23.7705 14.2662 23.6031 15.084C23.5553 15.3177 23.5007 15.6291 23.4394 16.0182C23.3745 16.3945 23.3166 16.7965 23.2656 17.2243C23.224 17.6358 23.1983 18.0292 23.1884 18.4045C23.1751 18.767 23.1978 19.0577 23.2565 19.2766C23.3427 19.5986 23.534 19.7199 23.8302 19.6405C24.1393 19.5577 24.4473 19.3164 24.7543 18.9167C24.8967 18.7267 25.021 18.5208 25.1272 18.2991C25.2334 18.0774 25.3268 17.8591 25.4073 17.6443C25.5717 17.2276 25.7034 16.792 25.8025 16.3375C25.911 15.8667 26.0071 15.4268 26.0908 15.0179C26.1087 14.9303 26.1499 14.8778 26.2143 14.8606C26.3044 14.8364 26.3938 14.8608 26.4823 14.9337C26.5709 15.0066 26.6032 15.1015 26.5793 15.2183C26.4897 15.6564 26.3739 16.1775 26.232 16.7815C26.0867 17.3725 25.886 17.9371 25.6299 18.475C25.408 18.9348 25.1255 19.3487 24.7823 19.7167C24.4487 20.0684 24.0371 20.3098 23.5477 20.4409ZM23.7842 10.2732C23.5652 10.3319 23.3724 10.3077 23.2056 10.2005C23.0354 10.0805 22.9176 9.89809 22.852 9.65339C22.7726 9.35717 22.7774 9.06601 22.8664 8.7799C22.9554 8.49378 23.0951 8.24239 23.2855 8.02573C23.4759 7.80906 23.6935 7.66795 23.9382 7.60238C24.1571 7.54371 24.3517 7.5744 24.5219 7.69444C24.6886 7.8016 24.8013 7.96465 24.86 8.1836C24.9359 8.46693 24.9311 8.7581 24.8456 9.05709C24.7601 9.35608 24.6238 9.62035 24.4369 9.84989C24.2464 10.0666 24.0289 10.2077 23.7842 10.2732ZM32.3358 18.0861C31.679 18.2621 31.1864 18.2009 30.8579 17.9024C30.5295 17.6039 30.3014 17.2164 30.1737 16.7399C30.0805 16.3921 30.026 16.034 30.0101 15.6656C29.9942 15.2972 29.9951 14.9656 30.0128 14.671C30.0305 14.3764 30.0448 14.1724 30.0558 14.059C30.0862 13.554 30.1281 13.0665 30.1816 12.5966C30.2446 12.1104 30.2987 11.7715 30.344 11.58C30.3227 11.6547 30.231 11.8794 30.0691 12.2541C29.9073 12.6287 29.721 13.0927 29.5104 13.6461C29.3092 14.1832 29.1166 14.7524 28.9327 15.3538C28.7453 15.9424 28.606 16.5043 28.5147 17.0394C28.4329 17.5583 28.4368 17.9852 28.5266 18.32C28.5887 18.5518 28.6851 18.7055 28.8157 18.7809C28.8647 18.8092 28.8926 18.8362 28.8995 18.8619C28.9168 18.9263 28.8511 18.9646 28.7026 18.9768C28.3925 19.0047 28.089 19.0308 27.7918 19.0552C27.4912 19.0668 27.2202 19.0082 26.9787 18.8797C26.7466 18.7348 26.5719 18.4435 26.4546 18.0056C26.3614 17.6578 26.3394 17.2151 26.3886 16.6774C26.4343 16.1268 26.5088 15.5547 26.612 14.9611C26.7152 14.3675 26.7966 13.8211 26.8561 13.3221C26.8671 13.2087 26.8901 13.0369 26.925 12.8067C26.9565 12.5636 26.9863 12.314 27.0143 12.058C27.0518 11.7857 27.0721 11.5525 27.0753 11.3584C27.0751 11.1514 27.0534 11.0192 27.0104 10.9617C26.9709 10.9171 26.9476 10.8819 26.9407 10.8561C26.8993 10.7016 26.9816 10.5967 27.1877 10.5415C27.3938 10.4863 27.6085 10.4633 27.8318 10.4724C28.0645 10.4653 28.2819 10.5037 28.4838 10.5876C28.6986 10.6681 28.8817 10.7847 29.0331 10.9374C29.1844 11.0901 29.2894 11.2759 29.3481 11.4948C29.386 11.6365 29.3987 11.8126 29.3861 12.023C29.3845 12.12 29.3593 12.2579 29.3105 12.4366C29.2712 12.599 29.2289 12.776 29.1836 12.9676C29.1383 13.1592 29.0883 13.3589 29.0336 13.5668C28.9918 13.7713 28.9855 13.8765 29.0147 13.8825C29.1848 13.2295 29.3911 12.6083 29.6334 12.0188C29.8852 11.413 30.1173 10.8884 30.3298 10.445C30.5551 9.99808 30.6969 9.67712 30.7551 9.48208C30.8374 9.3772 30.9945 9.2937 31.2263 9.23159C31.4968 9.15912 31.7961 9.16864 32.1243 9.26014C32.4525 9.35165 32.6753 9.61635 32.7926 10.0542C32.8892 10.4148 32.8778 10.8872 32.7582 11.4714C32.4874 12.6759 32.3177 13.7428 32.2493 14.6722C32.1774 15.5887 32.1949 16.2466 32.3019 16.6458C32.3778 16.9292 32.4931 17.0501 32.6476 17.0087C32.8279 16.9604 33.0029 16.7893 33.1726 16.4954C33.3423 16.2014 33.4871 15.8658 33.6069 15.4887C33.7798 15.0006 33.92 14.4937 34.0276 13.9679C34.1481 13.4387 34.2292 13.0719 34.2711 12.8674C34.289 12.7798 34.3366 12.7256 34.4139 12.7049C34.4912 12.6842 34.5741 12.7103 34.6626 12.7832C34.7606 12.8398 34.7976 12.9265 34.7737 13.0433C34.7319 13.2478 34.6639 13.5352 34.5699 13.9055C34.4888 14.2723 34.3887 14.6718 34.2699 15.1039C34.1476 15.5232 34.0025 15.9348 33.8346 16.3387C33.6548 16.801 33.4543 17.186 33.2331 17.4937C33.0084 17.7886 32.7093 17.9861 32.3358 18.0861ZM37.2148 16.7788C36.7512 16.903 36.2981 16.8864 35.8556 16.7289C35.4096 16.5585 35.1073 16.1771 34.9485 15.5847C34.8243 15.121 34.7626 14.5302 34.7635 13.8122C34.7643 13.0942 34.8197 12.3477 34.9296 11.5729C35.036 10.7852 35.1871 10.0614 35.383 9.40154L34.5523 9.62413C34.475 9.64483 34.4278 9.62299 34.4105 9.55859C34.3967 9.50708 34.4134 9.44049 34.4605 9.35884C34.5042 9.26431 34.5677 9.19209 34.6509 9.14218C34.8398 9.02257 35.0727 8.83591 35.3498 8.58221C35.6364 8.31218 35.9289 8.01294 36.2274 7.6845C36.5259 7.35605 36.8051 7.03278 37.0649 6.71468C37.3248 6.39659 37.5289 6.12794 37.6772 5.90875C37.7655 5.77466 37.8689 5.67104 37.9873 5.5979C38.1186 5.5213 38.2487 5.46575 38.3775 5.43124C38.5964 5.37257 38.7742 5.36635 38.9108 5.41256C39.0474 5.45878 39.0681 5.53605 38.9729 5.64438C38.8871 5.73639 38.7886 5.93533 38.6773 6.24123C38.566 6.54712 38.4552 6.8805 38.3448 7.24136C38.2474 7.59877 38.1606 7.9188 38.0845 8.20146L39.5527 7.80806C39.5784 7.80116 39.5965 7.81702 39.6068 7.85566C39.6241 7.92006 39.6208 8.01067 39.5969 8.12751C39.5695 8.23146 39.5301 8.29034 39.4785 8.30415L37.9524 8.71308C37.8156 9.23287 37.6703 9.82395 37.5165 10.4863C37.3627 11.1487 37.2252 11.8205 37.1041 12.5017C36.9923 13.1666 36.9153 13.7808 36.8731 14.3443C36.8274 14.8949 36.8442 15.3183 36.9235 15.6145C37.0098 15.9365 37.2011 16.0578 37.4973 15.9784C37.8064 15.8956 38.1144 15.6543 38.4214 15.2546C38.6709 14.8978 38.8839 14.4819 39.0602 14.0067C39.2306 13.5608 39.3653 13.1106 39.4644 12.6561C39.5764 12.1982 39.6652 11.8086 39.731 11.4873C39.7584 11.3833 39.8171 11.3193 39.9073 11.2951C39.9974 11.2709 40.0786 11.2906 40.1508 11.3541C40.2325 11.4012 40.2613 11.4832 40.2374 11.6C40.1478 12.0382 40.0239 12.5545 39.8657 13.149C39.7075 13.7436 39.5179 14.2982 39.297 14.8129C39.1162 15.2203 38.9212 15.5486 38.7119 15.7979C38.5121 16.0309 38.2826 16.2304 38.0234 16.3965C37.7806 16.572 37.511 16.6994 37.2148 16.7788ZM43.1527 15.1463C42.9467 15.2016 42.762 15.182 42.5987 15.0877C42.432 14.9806 42.3192 14.8175 42.2606 14.5986C42.1916 14.341 42.1968 14.0773 42.2764 13.8075C42.3559 13.5378 42.4798 13.3044 42.6479 13.1075C42.8254 12.8943 43.0236 12.7584 43.2426 12.6997C43.4486 12.6445 43.6286 12.6722 43.7825 12.7828C43.9492 12.89 44.0619 13.053 44.1206 13.272C44.1896 13.5295 44.1844 13.7932 44.1048 14.063C44.0253 14.3328 43.9014 14.5661 43.7333 14.763C43.5652 14.9599 43.3717 15.0877 43.1527 15.1463ZM49.635 13.2852C49.3002 13.3749 48.9748 13.4483 48.6588 13.5054C48.3557 13.559 48.0902 13.5473 47.8625 13.4702C47.6314 13.3803 47.4675 13.1551 47.3709 12.7945C47.3536 12.7301 47.3364 12.6657 47.3191 12.6013C47.3113 12.5206 47.3035 12.4398 47.2956 12.3591C47.2728 11.9649 47.2958 11.4066 47.3645 10.6842C47.4298 9.94893 47.5327 9.14834 47.6734 8.28242C47.8141 7.41651 47.9715 6.5875 48.1458 5.79541C47.8577 6.1625 47.5747 6.5489 47.2969 6.95462C47.0191 7.36034 46.7066 7.81678 46.3594 8.32393C46.3311 8.37292 46.2912 8.40432 46.2397 8.41812C46.1753 8.43538 46.107 8.41227 46.0347 8.3488C45.9754 8.28188 45.9337 8.20334 45.9095 8.11319C45.8681 7.95864 45.8868 7.82249 45.9657 7.70473C46.7108 6.62165 47.3006 5.73201 47.7352 5.0358C48.1827 4.33614 48.5427 3.72204 48.8152 3.1935C49.0346 2.77583 49.291 2.44485 49.5844 2.20058C49.8779 1.95631 50.2628 1.77033 50.7394 1.64265C51.0613 1.55637 51.4452 1.49493 51.8909 1.45833C52.0687 1.4521 52.1662 1.48119 52.1835 1.54558C52.2007 1.60998 52.1476 1.72084 52.0241 1.87816C51.856 2.07504 51.6743 2.4274 51.4791 2.93523C51.2933 3.42673 51.1077 4.02172 50.9221 4.72021C50.7331 5.40582 50.5532 6.15111 50.3824 6.95608C50.221 7.74472 50.0807 8.53463 49.9614 9.3258C49.8421 10.117 49.7511 10.8591 49.6884 11.5523C49.6351 12.2292 49.6173 12.8068 49.635 13.2852Z" fill="#FFFFCC"/>
<path d="M3.82529 28.1481L52.8901 15.0012L53.1489 15.9671L4.08411 29.114L3.82529 28.1481Z" fill="#FFFFCC"/>
</svg>
